<?xml version="1.0" standalone="no"?>
<!DOCTYPE svg PUBLIC "-//W3C//DTD SVG 20010904//EN"
 "http://www.w3.org/TR/2001/REC-SVG-20010904/DTD/svg10.dtd">
<svg version="1.0" xmlns="http://www.w3.org/2000/svg"
 viewBox="0 0 2600.000000 2600.000000"
 preserveAspectRatio="xMidYMid meet">
<metadata>
Created by potrace 1.15, written by Peter Selinger 2001-2017
</metadata>
<g transform="translate(0.000000,2600.000000) scale(0.100000,-0.100000)"
fill="#000000" stroke="none">
<path d="M20745 20739 c-268 -21 -556 -119 -780 -266 -389 -256 -648 -637
-745 -1098 -30 -143 -37 -393 -16 -545 101 -721 633 -1293 1339 -1440 480
-100 991 20 1382 325 470 367 717 964 640 1548 -36 272 -122 503 -274 728
-245 366 -612 617 -1042 713 -97 21 -336 49 -388 45 -9 -1 -61 -5 -116 -10z"/>
<path d="M5528 20429 c-256 -20 -547 -117 -765 -256 -261 -165 -491 -423 -623
-698 -228 -474 -224 -1017 9 -1485 97 -192 195 -324 356 -478 284 -271 647
-431 1045 -462 669 -51 1315 315 1624 920 67 131 129 307 158 453 19 95 23
144 23 317 0 174 -4 222 -23 318 -137 678 -654 1202 -1324 1342 -75 16 -348
44 -368 39 -3 -1 -53 -6 -112 -10z"/>
<path d="M18645 18194 c-782 -165 -1465 -378 -1921 -600 -133 -64 -231 -149
-304 -260 -52 -80 -97 -204 -107 -294 l-6 -60 -2242 -2 -2241 -3 256 -755 257
-755 1275 -3 1276 -2 96 -283 c53 -155 170 -498 260 -762 l163 -480 837 -3
c793 -2 838 -3 831 -20 -16 -41 -35 -152 -35 -210 0 -99 27 -208 77 -312 38
-79 59 -108 132 -181 73 -73 102 -94 181 -132 145 -70 219 -81 475 -74 921 28
1785 283 2465 728 l105 68 6 -82 c4 -45 10 -219 14 -387 l7 -306 -62 -89
c-279 -399 -618 -1003 -865 -1540 -644 -1403 -963 -2809 -942 -4152 5 -353 13
-398 91 -558 102 -208 294 -364 524 -427 102 -28 294 -30 397 -4 82 21 214 81
281 127 104 71 216 206 271 325 64 140 65 150 74 629 9 514 28 752 95 1150
129 770 377 1539 750 2328 53 111 99 205 103 210 4 4 41 -8 82 -27 41 -18 104
-43 141 -55 67 -22 67 -22 72 -64 3 -23 10 -312 16 -642 19 -1055 35 -1514 66
-1885 81 -981 296 -1689 663 -2185 223 -301 445 -429 746 -427 553 2 944 548
769 1072 -36 105 -73 171 -159 280 -170 216 -260 475 -334 960 -71 471 -90
913 -131 3084 l-10 519 35 87 c43 107 81 250 94 355 43 340 44 1453 1 2075
-84 1212 -294 2360 -617 3383 -31 97 -59 177 -62 177 -3 0 -22 -22 -41 -47
-94 -126 -318 -327 -490 -440 -753 -496 -1747 -462 -2472 84 -289 218 -536
528 -674 845 -18 41 -35 67 -44 67 -8 0 -109 -21 -225 -45z m1304 -1397 c108
-327 216 -741 296 -1130 l37 -178 -78 -85 c-198 -219 -474 -434 -759 -593
-425 -236 -1000 -387 -1499 -394 l-151 -2 -307 905 c-170 498 -311 915 -314
926 -5 19 1 24 48 39 29 10 103 40 163 68 563 255 1293 443 2435 625 30 4 58
7 62 5 4 -2 34 -86 67 -186z"/>
<path d="M7677 17958 c-7 -18 -42 -94 -78 -168 -498 -1014 -1688 -1473 -2734
-1053 -315 126 -628 351 -830 597 -38 46 -73 85 -76 85 -14 2 -177 -550 -263
-894 -229 -916 -357 -1766 -427 -2835 -28 -435 -21 -1651 12 -1905 13 -105 51
-248 95 -356 l34 -88 -10 -528 c-42 -2170 -56 -2534 -121 -3008 -70 -512 -169
-804 -344 -1025 -139 -174 -199 -338 -198 -540 3 -453 359 -810 808 -812 300
-1 519 122 739 415 385 515 604 1261 680 2322 24 326 49 1132 61 1970 3 204 8
393 11 422 l5 52 67 22 c37 12 100 37 141 55 41 19 78 31 83 26 4 -4 51 -100
104 -213 494 -1050 766 -2048 834 -3057 5 -85 10 -297 10 -472 0 -343 5 -394
55 -526 91 -242 309 -433 570 -500 107 -27 296 -25 402 5 288 81 504 301 585
596 22 77 22 98 23 500 0 473 -15 703 -71 1125 -193 1455 -812 3071 -1671
4363 l-125 188 6 267 c7 286 22 625 32 734 l6 66 67 -48 c113 -82 351 -235
481 -309 764 -437 1568 -674 2480 -731 369 -23 489 -10 650 67 80 39 108 59
181 132 95 95 134 157 175 276 26 73 28 93 28 215 0 95 -5 149 -16 183 l-16
47 2300 0 c2185 0 2299 1 2294 18 -3 9 -120 352 -259 762 l-253 745 -1276 3
-1275 2 -196 578 c-108 317 -224 659 -258 760 l-62 182 -889 0 c-844 0 -890 1
-883 18 44 111 58 290 30 404 -35 146 -122 292 -226 378 -198 167 -754 371
-1347 494 -67 14 -125 26 -128 26 -3 0 -11 -15 -17 -32z m-641 -1284 c420 -59
794 -140 1044 -226 63 -22 180 -70 260 -108 172 -81 192 -88 300 -100 46 -5
87 -13 91 -17 4 -5 161 -458 348 -1008 187 -550 349 -1027 360 -1059 l21 -59
-193 6 c-475 15 -953 115 -1412 297 -165 66 -502 238 -663 339 -268 168 -526
370 -751 587 l-118 114 32 142 c85 368 206 800 291 1036 l37 103 56 -6 c31 -4
164 -22 297 -41z"/>
</g>
</svg>
